<svg width="24" height="24" viewBox="0 0 24 24" fill="none" xmlns="http://www.w3.org/2000/svg">
<path fill-rule="evenodd" clip-rule="evenodd" d="M11 10.8661V10.8664V11H1V11.5V12V12.5H11V23H11.5H12H12.5V12.5H13.1336H13.1339H13.1346H13.1356H13.137H13.1387H13.1408H13.141H13.1432H13.1435H13.146H13.1463H13.1491H13.1495H13.1525H13.1531H13.1562H13.157H13.1603H13.1613H13.1648H13.166H13.1695H13.1711H13.1746H13.1765H13.18H13.1822H13.1858H13.1884H13.1918H13.1949H13.1982H13.2018H13.205H13.2091H13.212H13.2167H13.2194H13.2248H13.227H13.2332H13.235H13.242H13.2434H13.2512H13.252H13.2607H13.2609H13.2702H13.2707H13.2797H13.281H13.2896H13.2917H13.2998H13.3028H13.3103H13.3144H13.3211H13.3263H13.3322H13.3385H13.3436H13.3512H13.3553H13.3643H13.3673H13.3778H13.3796H13.3917H13.3922H13.4051H13.406H13.4183H13.4207H13.4318H13.4358H13.4455H13.4513H13.4596H13.4672H13.4739H13.4835H13.4886H13.5002H13.5035H13.5173H13.5187H13.5342H13.5349H13.55H13.5528H13.5661H13.5712H13.5824H13.59H13.599H13.6092H13.6159H13.6288H13.6331H13.6489H13.6505H13.6682H13.6693H13.6862H13.6902H13.7045H13.7116H13.723H13.7333H13.7418H13.7555H13.7608H13.7781H13.7802H13.7997H13.8011H13.8196H13.8245H13.8397H13.8484H13.8601H13.8728H13.8807H13.8975H13.9016H13.9227H13.9441H13.9483H13.9657H13.9744H13.9876H14.0009H14.0097H14.0279H14.0321H14.0548H14.0553H14.0776H14.0831H14.1008H14.1114H14.1241H14.1402H14.1477H14.1694H14.1716H14.1957H14.199H14.22H14.2291H14.2445H14.2596H14.2693H14.2906H14.2943H14.3196H14.3221H14.3451H14.354H14.3708H14.3864H14.3967H14.4192H14.4229H14.4493H14.4525H14.4759H14.4862H14.5027H14.5205H14.5298H14.5551H14.5571H14.5846H14.5903H14.6123H14.6259H14.6402H14.662H14.6684H14.6967H14.6985H14.7253H14.7356H14.754H14.7731H14.783H14.8111H14.8122H14.8416H14.8495H14.8712H14.8885H14.901H14.9279H14.931H14.9612H14.9678H14.9916H15.0081H15.0222H15.049H15.053H15.084H15.0903H15.1152H15.1322H15.1465H15.1745H15.1781H15.2099H15.2173H15.2418H15.2606H15.2739H15.3044H15.3062H15.3387H15.3486H15.3714H15.3934H15.4043H15.4373H15.4387H15.4705H15.4844H15.5039H15.5307H15.5375H15.5712H15.5775H15.6051H15.6247H15.6392H15.6725H15.6735H15.7079H15.7208H15.7425H15.7696H15.7773H15.8122H15.8188H15.8473H15.8686H15.8825H15.9179H15.9189H15.9535H15.9697H15.9892H16.0211H16.0251H16.0611H16.0729H16.0973H16.1252H16.1337H16.1702H16.1781H16.2068H16.2315H16.2436H16.2805H16.2854H16.3176H16.3398H16.3548H16.3922H16.3948H16.4297H16.4502H16.4674H16.5052H16.5062H16.5431H16.5627H16.5811H16.6193H16.6198H16.6577H16.6773H16.6961H16.7347H16.7354H16.7734H16.7941H16.8123H16.8513H16.8532H16.8904H16.9129H16.9296H16.9689H16.9732H17.0084H17.0339H17.048H17.0877H17.0953H17.1275H17.1571H17.1674H17.2075H17.2195H17.2476H17.2824H17.2879H17.3283H17.3459H17.3688H17.4094H17.4099H17.4501H17.4745H17.4909H17.5318H17.5396H17.5728H17.6053H17.6139H17.6551H17.6715H17.6964H17.7378H17.7382H17.7793H17.8055H17.8209H17.8626H17.8734H17.9044H17.9418H17.9462H17.9882H18.0108H18.0302H18.0724H18.0804H18.1146H18.1505H18.1569H18.1992H18.2211H18.2417H18.2842H18.2924H18.3268H18.3641H18.3695H18.4122H18.4365H18.4551H18.498H18.5094H18.5409H18.5829H18.584H18.6271H18.657H18.6703H18.7135H18.7316H18.7568H18.8001H18.8068H18.8436H18.8826H18.8871H18.9306H18.9589H18.9742H19.0178H19.0358H19.0615H19.1053H19.1133H19.1491H19.1914H19.193H19.2369H19.2701H19.2808H19.3248H19.3493H19.3689H19.4129H19.4292H19.4571H19.5012H19.5096H19.5454H19.5897H19.5906H19.6339H19.6722H19.6783H19.7226H19.7543H19.767H19.8114H19.8371H19.8558H19.9003H19.9205H19.9448H19.9893H20.0044H20.0338H20.0784H20.0889H20.123H20.1676H20.1741H20.2122H20.2568H20.2598H20.3015H20.3462H20.3908H20.4331H20.4355H20.4802H20.5206H20.5249H20.5696H20.6087H20.6144H20.6591H20.6975H20.7038H20.7485H20.7868H20.7933H20.838H20.8768H20.8827H20.9275H20.9673H20.9722H21.0169H21.0585H21.0616H21.1063H21.1503H21.151H21.1956H21.2403H21.2427H21.2849H21.3296H21.3357H21.3742H21.4188H21.4293H21.4633H21.5079H21.5235H21.5524H21.5969H21.6184H21.6414H21.6859H21.7138H21.7303H21.7747H21.8099H21.819H21.8634H21.9066H21.9076H21.9519H21.9961H22.004H22.0403H22.0845H22.1019H22.1286H22.1726H22.2005H22.2166H22.2606H22.2997H22.3045H22.3484H22.3923H22.3995H22.436H22.4798H22.5H22.5234H22.5671H22.6106H22.6541H22.6976H22.741H22.7843H22.8276H22.8708H22.9139H22.957H23V12V11.5V11H22.957H22.9139H22.8708H22.8276H22.7843H22.741H22.6976H22.6541H22.6106H22.5671H22.5234H22.5H22.4798H22.436H22.3995H22.3923H22.3484H22.3045H22.2997H22.2606H22.2166H22.2005H22.1726H22.1286H22.1019H22.0845H22.0403H22.004H21.9961H21.9519H21.9076H21.9066H21.8634H21.819H21.8099H21.7747H21.7303H21.7138H21.6859H21.6414H21.6184H21.5969H21.5524H21.5235H21.5079H21.4633H21.4293H21.4188H21.3742H21.3357H21.3296H21.2849H21.2427H21.2403H21.1956H21.151H21.1503H21.1063H21.0616H21.0585H21.0169H20.9722H20.9673H20.9275H20.8827H20.8768H20.838H20.7933H20.7868H20.7485H20.7038H20.6975H20.6591H20.6144H20.6087H20.5696H20.5249H20.5206H20.4802H20.4355H20.4331H20.3908H20.3461H20.3015H20.2598H20.2568H20.2122H20.1741H20.1676H20.123H20.0889H20.0784H20.0338H20.0044H19.9893H19.9448H19.9205H19.9003H19.8558H19.8371H19.8114H19.767H19.7543H19.7226H19.6783H19.6722H19.6339H19.5906H19.5897H19.5454H19.5096H19.5012H19.4571H19.4292H19.4129H19.3689H19.3493H19.3248H19.2808H19.2701H19.2369H19.193H19.1914H19.1491H19.1133H19.1053H19.0615H19.0358H19.0178H18.9742H18.9589H18.9306H18.8871H18.8826H18.8436H18.8068H18.8001H18.7568H18.7316H18.7135H18.6703H18.657H18.6271H18.584H18.5829H18.5409H18.5094H18.498H18.4551H18.4365H18.4122H18.3695H18.3641H18.3268H18.2924H18.2842H18.2417H18.2211H18.1992H18.1569H18.1505H18.1146H18.0804H18.0724H18.0302H18.0108H17.9882H17.9462H17.9418H17.9044H17.8734H17.8626H17.8209H17.8055H17.7793H17.7382H17.7378H17.6964H17.6715H17.6551H17.6139H17.6053H17.5728H17.5396H17.5318H17.4909H17.4745H17.4501H17.4099H17.4094H17.3688H17.3459H17.3283H17.2879H17.2824H17.2476H17.2195H17.2075H17.1674H17.1571H17.1275H17.0953H17.0877H17.048H17.0339H17.0084H16.9732H16.9689H16.9296H16.9129H16.8904H16.8532H16.8513H16.8123H16.7941H16.7734H16.7354H16.7347H16.6961H16.6773H16.6577H16.6198H16.6193H16.5811H16.5627H16.5431H16.5062H16.5052H16.4674H16.4502H16.4297H16.3948H16.3922H16.3548H16.3398H16.3176H16.2854H16.2805H16.2436H16.2315H16.2068H16.1781H16.1702H16.1337H16.1252H16.0973H16.0729H16.0611H16.0251H16.0211H15.9892H15.9697H15.9535H15.9189H15.9179H15.8825H15.8686H15.8473H15.8188H15.8122H15.7773H15.7696H15.7425H15.7208H15.7079H15.6735H15.6725H15.6392H15.6247H15.6051H15.5775H15.5712H15.5375H15.5307H15.5039H15.4844H15.4705H15.4387H15.4373H15.4043H15.3934H15.3714H15.3486H15.3387H15.3062H15.3044H15.2739H15.2606H15.2418H15.2173H15.2099H15.1781H15.1745H15.1465H15.1322H15.1152H15.0903H15.084H15.053H15.049H15.0222H15.0081H14.9916H14.9678H14.9612H14.931H14.9279H14.901H14.8885H14.8712H14.8495H14.8416H14.8122H14.8111H14.783H14.7731H14.754H14.7356H14.7253H14.6985H14.6967H14.6684H14.662H14.6402H14.6259H14.6123H14.5903H14.5846H14.5571H14.5551H14.5298H14.5205H14.5027H14.4862H14.4759H14.4525H14.4493H14.4229H14.4192H14.3967H14.3864H14.3708H14.354H14.3451H14.3221H14.3196H14.2943H14.2906H14.2693H14.2596H14.2445H14.2291H14.22H14.199H14.1957H14.1716H14.1694H14.1477H14.1402H14.1241H14.1114H14.1008H14.0831H14.0776H14.0553H14.0548H14.0321H14.0279H14.0097H14.0009H13.9876H13.9744H13.9657H13.9483H13.9441H13.9227H13.9016H13.8975H13.8807H13.8728H13.8601H13.8484H13.8397H13.8245H13.8196H13.8011H13.7997H13.7802H13.7781H13.7608H13.7555H13.7418H13.7333H13.723H13.7116H13.7045H13.6902H13.6862H13.6693H13.6682H13.6505H13.6489H13.6331H13.6288H13.6159H13.6092H13.599H13.59H13.5824H13.5712H13.5661H13.5528H13.55H13.5349H13.5342H13.5187H13.5173H13.5035H13.5002H13.4886H13.4835H13.4739H13.4672H13.4596H13.4513H13.4455H13.4358H13.4318H13.4207H13.4183H13.406H13.4051H13.3922H13.3917H13.3796H13.3778H13.3673H13.3643H13.3553H13.3512H13.3436H13.3385H13.3322H13.3263H13.3211H13.3144H13.3103H13.3028H13.2998H13.2917H13.2896H13.281H13.2797H13.2707H13.2702H13.2609H13.2607H13.252H13.2512H13.2434H13.242H13.235H13.2332H13.227H13.2248H13.2194H13.2167H13.212H13.2091H13.205H13.2018H13.1982H13.1949H13.1918H13.1884H13.1858H13.1822H13.18H13.1765H13.1746H13.1711H13.1695H13.166H13.1648H13.1613H13.1603H13.157H13.1562H13.1531H13.1525H13.1495H13.1491H13.1463H13.146H13.1435H13.1432H13.141H13.1408H13.1389H13.1371H13.1357H13.1346H13.1339H13.1336H12.5V10.8664V10.8661V10.8654V10.8644V10.863V10.8613V10.8592V10.859V10.8568V10.8565V10.854V10.8537V10.8509V10.8505V10.8475V10.8469V10.8438V10.843V10.8397V10.8387V10.8352V10.834V10.8305V10.8289V10.8254V10.8235V10.82V10.8178V10.8142V10.8116V10.8082V10.8051V10.8018V10.7982V10.795V10.7909V10.788V10.7833V10.7806V10.7752V10.773V10.7668V10.765V10.758V10.7566V10.7488V10.748V10.7393V10.7391V10.7298V10.7293V10.7203V10.719V10.7104V10.7083V10.7002V10.6972V10.6897V10.6856V10.6789V10.6737V10.6678V10.6615V10.6564V10.6488V10.6447V10.6357V10.6327V10.6222V10.6204V10.6083V10.6078V10.5949V10.594V10.5817V10.5793V10.5682V10.5642V10.5545V10.5487V10.5404V10.5328V10.5261V10.5165V10.5114V10.4998V10.4965V10.4827V10.4813V10.4658V10.4651V10.45V10.4472V10.4339V10.4288V10.4176V10.41V10.401V10.3908V10.3841V10.3712V10.3669V10.3511V10.3495V10.3318V10.3307V10.3138V10.3098V10.2955V10.2884V10.277V10.2667V10.2582V10.2445V10.2392V10.2219V10.2198V10.2003V10.1989V10.1804V10.1755V10.1603V10.1516V10.1399V10.1272V10.1193V10.1025V10.0984V10.0773V10.0559V10.0517V10.0343V10.0256V10.0124V9.99907V9.99026V9.97211V9.96788V9.94524V9.94471V9.92237V9.91686V9.89924V9.88857V9.87588V9.85983V9.85227V9.83065V9.82843V9.80435V9.80101V9.78003V9.77092V9.75547V9.74037V9.73068V9.70938V9.70566V9.6804V9.67792V9.65492V9.64601V9.6292V9.61364V9.60326V9.58081V9.5771V9.5507V9.54752V9.52409V9.51377V9.49725V9.47955V9.4702V9.44487V9.44292V9.41542V9.40972V9.38771V9.3741V9.35979V9.33801V9.33165V9.3033V9.30145V9.27473V9.26442V9.24596V9.22692V9.21698V9.18894V9.18779V9.1584V9.15048V9.1288V9.11155V9.099V9.07214V9.069V9.0388V9.03224V9.0084V8.99187V8.9778V8.95101V8.947V8.91602V8.90967V8.88483V8.86784V8.85346V8.82552V8.8219V8.79014V8.78272V8.7582V8.73942V8.72608V8.69564V8.69376V8.66127V8.65136V8.62859V8.60659V8.59573V8.56269V8.56132V8.52948V8.51555V8.49608V8.46929V8.46251V8.42877V8.42252V8.39486V8.37526V8.36077V8.32749V8.32651V8.29209V8.27922V8.25749V8.23045V8.22273V8.18781V8.18116V8.15272V8.13137V8.11748V8.08207V8.08108V8.0465V8.03027V8.01078V7.97894V7.9749V7.93886V7.92711V7.90267V7.87476V7.86633V7.82983V7.82189V7.79319V7.76851V7.7564V7.71946V7.71461V7.68238V7.66019V7.64516V7.60779V7.60524V7.57028V7.54978V7.53263V7.49484V7.49379V7.45691V7.43727V7.41885V7.38066V7.38023V7.34233V7.32266V7.30387V7.26528V7.26455V7.22656V7.20592V7.18771V7.14874V7.14676V7.10964V7.08706V7.07042V7.03107V7.02682V6.99161V6.96605V6.95202V6.91232V6.90475V6.8725V6.8429V6.83257V6.79252V6.78051V6.75236V6.71758V6.71209V6.67171V6.6541V6.63122V6.59063V6.59009V6.54992V6.52552V6.50912V6.46821V6.46041V6.4272V6.39475V6.38609V6.34488V6.32854V6.30357V6.26217V6.26177V6.22067V6.19446V6.17908V6.13739V6.12659V6.09562V6.05816V6.05375V6.0118V5.98918V5.96977V5.92764V5.91964V5.88544V5.84953V5.84315V5.80078V5.77887V5.75833V5.7158V5.70765V5.67319V5.63586V5.63051V5.58776V5.5635V5.54493V5.50203V5.49058V5.45906V5.41709V5.41602V5.37292V5.34304V5.32975V5.28651V5.26841V5.24321V5.19985V5.1932V5.15643V5.11743V5.11295V5.06941V5.04108V5.02582V4.98217V4.96415V4.93846V4.89471V4.88665V4.8509V4.80857V4.80704V4.76314V4.72991V4.71919V4.67519V4.65066V4.63115V4.58706V4.57083V4.54294V4.49877V4.49042V4.45457V4.41033V4.40942V4.36605V4.32784V4.32174V4.27739V4.24567V4.23302V4.18861V4.1629V4.14417V4.09971V4.07955V4.05522V4.0107V3.9956V3.96617V3.92161V3.91106V3.87702V3.83242V3.82592V3.7878V3.74317V3.74019V3.69851V3.65385V3.60917V3.56693V3.56448V3.51978V3.47939V3.47507V3.43036V3.39126V3.38564V3.34091V3.30252V3.29618V3.25145V3.21318V3.20672V3.16199V3.12323V3.11727V3.07254V3.03267V3.02783V2.98311V2.94151V2.93841V2.89372V2.84973V2.84903V2.80436V2.7597V2.75734V2.71506V2.67043V2.66434V2.62582V2.58123V2.57072V2.53666V2.49211V2.47649V2.44758V2.40308V2.38164V2.3586V2.31415V2.28618V2.26973V2.22534V2.19009V2.18098V2.13665V2.09338V2.09235V2.04809V2.00387V1.99605V1.95969V1.91554V1.89809V1.87144V1.82737V1.79951V1.78336V1.73938V1.7003V1.69545V1.65157V1.60774V1.60047V1.56396V1.52023V1.5V1.47655V1.43293V1.38936V1.34585V1.3024V1.25901V1.21568V1.17242V1.12921V1.08607V1.043V1H12H11.5H11V1.043V1.08607V1.12921V1.17242V1.21568V1.25901V1.3024V1.34585V1.38936V1.43293V1.47655V1.5V1.52023V1.56396V1.60047V1.60774V1.65157V1.69545V1.7003V1.73938V1.78336V1.79951V1.82737V1.87144V1.89809V1.91554V1.95969V1.99605V2.00387V2.04809V2.09235V2.09338V2.13665V2.18098V2.19009V2.22534V2.26973V2.28618V2.31415V2.3586V2.38164V2.40308V2.44758V2.47649V2.49211V2.53666V2.57072V2.58123V2.62582V2.66434V2.67043V2.71506V2.75734V2.7597V2.80436V2.84903V2.84973V2.89372V2.93841V2.94151V2.98311V3.02783V3.03267V3.07254V3.11727V3.12323V3.16199V3.20672V3.21318V3.25145V3.29618V3.30252V3.34091V3.38564V3.39126V3.43036V3.47507V3.47939V3.51978V3.56448V3.56693V3.60917V3.65386V3.69851V3.74019V3.74317V3.7878V3.82592V3.83242V3.87702V3.91106V3.92161V3.96617V3.9956V4.0107V4.05522V4.07955V4.09971V4.14417V4.1629V4.18861V4.23302V4.24567V4.27739V4.32174V4.32784V4.36605V4.40942V4.41033V4.45457V4.49042V4.49877V4.54294V4.57083V4.58706V4.63115V4.65066V4.67519V4.71919V4.72991V4.76314V4.80704V4.80857V4.8509V4.88665V4.89471V4.93846V4.96415V4.98217V5.02582V5.04108V5.06941V5.11295V5.11743V5.15643V5.1932V5.19985V5.24321V5.26841V5.28651V5.32975V5.34304V5.37292V5.41602V5.41709V5.45906V5.49058V5.50203V5.54493V5.5635V5.58776V5.63051V5.63586V5.67319V5.70765V5.7158V5.75833V5.77887V5.80078V5.84315V5.84953V5.88544V5.91964V5.92764V5.96977V5.98918V6.0118V6.05375V6.05816V6.09562V6.12659V6.13739V6.17908V6.19446V6.22067V6.26177V6.26217V6.30357V6.32854V6.34488V6.38609V6.39475V6.4272V6.46041V6.46821V6.50912V6.52552V6.54992V6.59009V6.59063V6.63122V6.6541V6.67171V6.71209V6.71758V6.75236V6.78051V6.79252V6.83257V6.8429V6.8725V6.90475V6.91232V6.95202V6.96605V6.99161V7.02682V7.03107V7.07042V7.08706V7.10964V7.14676V7.14874V7.18771V7.20592V7.22656V7.26455V7.26528V7.30387V7.32266V7.34233V7.38023V7.38066V7.41885V7.43727V7.45691V7.49379V7.49484V7.53263V7.54978V7.57028V7.60524V7.60779V7.64516V7.66019V7.68238V7.71461V7.71946V7.7564V7.76851V7.79319V7.82189V7.82983V7.86633V7.87476V7.90267V7.92711V7.93886V7.9749V7.97894V8.01078V8.03027V8.0465V8.08108V8.08207V8.11748V8.13137V8.15272V8.18116V8.18781V8.22273V8.23045V8.25749V8.27922V8.29209V8.32651V8.32749V8.36077V8.37526V8.39486V8.42252V8.42877V8.46251V8.46929V8.49608V8.51555V8.52948V8.56132V8.56269V8.59573V8.60659V8.62859V8.65136V8.66127V8.69376V8.69564V8.72608V8.73942V8.7582V8.78272V8.79014V8.8219V8.82552V8.85346V8.86784V8.88483V8.90967V8.91602V8.947V8.95101V8.9778V8.99187V9.0084V9.03224V9.0388V9.069V9.07214V9.099V9.11155V9.1288V9.15048V9.1584V9.18779V9.18894V9.21698V9.22692V9.24596V9.26442V9.27473V9.30145V9.3033V9.33165V9.33801V9.35979V9.3741V9.38771V9.40972V9.41542V9.44292V9.44487V9.4702V9.47955V9.49725V9.51377V9.52409V9.54752V9.5507V9.5771V9.58081V9.60326V9.61364V9.6292V9.64601V9.65492V9.67792V9.6804V9.70566V9.70938V9.73068V9.74037V9.75547V9.77092V9.78003V9.80101V9.80435V9.82843V9.83065V9.85227V9.85983V9.87588V9.88857V9.89924V9.91686V9.92237V9.94471V9.94524V9.96788V9.97211V9.99026V9.99907V10.0124V10.0256V10.0343V10.0517V10.0559V10.0773V10.0984V10.1025V10.1193V10.1272V10.1399V10.1516V10.1603V10.1755V10.1804V10.1989V10.2003V10.2198V10.2219V10.2392V10.2445V10.2582V10.2667V10.277V10.2884V10.2955V10.3098V10.3138V10.3307V10.3318V10.3495V10.3511V10.3669V10.3712V10.3841V10.3908V10.401V10.41V10.4176V10.4288V10.4339V10.4472V10.45V10.4651V10.4658V10.4813V10.4827V10.4965V10.4998V10.5114V10.5165V10.5261V10.5328V10.5404V10.5487V10.5545V10.5642V10.5682V10.5793V10.5817V10.594V10.5949V10.6078V10.6083V10.6204V10.6222V10.6327V10.6357V10.6447V10.6488V10.6564V10.6615V10.6678V10.6737V10.6789V10.6856V10.6897V10.6972V10.7002V10.7083V10.7104V10.719V10.7203V10.7293V10.7298V10.7391V10.7393V10.748V10.7488V10.7566V10.758V10.765V10.7668V10.773V10.7752V10.7806V10.7833V10.788V10.7909V10.795V10.7982V10.8018V10.8051V10.8082V10.8116V10.8142V10.8178V10.82V10.8235V10.8254V10.8289V10.8305V10.834V10.8352V10.8387V10.8397V10.843V10.8438V10.8469V10.8475V10.8505V10.8509V10.8537V10.854V10.8565V10.8568V10.859V10.8592V10.8611V10.8629V10.8643V10.8654V10.8661Z" fill="black"/>
</svg>
