<svg width="24" height="24" viewBox="0 0 24 24" fill="none" xmlns="http://www.w3.org/2000/svg">
<g clip-path="url(#clip0_2_37)">
<mask id="path-1-outside-1_2_37" maskUnits="userSpaceOnUse" x="2" y="6" width="20" height="12" fill="black">
<rect fill="white" x="2" y="6" width="20" height="12"/>
<path d="M3.1614 12.9318V12.25L8.65004 9.45455V10.5455L4.43981 12.5739L4.4739 12.5057V12.6761L4.43981 12.608L8.65004 14.6364V15.7273L3.1614 12.9318ZM13.867 6.86364L11.0545 17.3125H10.1341L12.9466 6.86364H13.867ZM20.8375 12.9318L15.3489 15.7273V14.6364L19.5591 12.608L19.525 12.6761V12.5057L19.5591 12.5739L15.3489 10.5455V9.45455L20.8375 12.25V12.9318Z"/>
</mask>
<path d="M3.1614 12.9318V12.25L8.65004 9.45455V10.5455L4.43981 12.5739L4.4739 12.5057V12.6761L4.43981 12.608L8.65004 14.6364V15.7273L3.1614 12.9318ZM13.867 6.86364L11.0545 17.3125H10.1341L12.9466 6.86364H13.867ZM20.8375 12.9318L15.3489 15.7273V14.6364L19.5591 12.608L19.525 12.6761V12.5057L19.5591 12.5739L15.3489 10.5455V9.45455L20.8375 12.25V12.9318Z" fill="black"/>
<path d="M3.1614 12.9318H2.8614V13.1157L3.02525 13.1991L3.1614 12.9318ZM3.1614 12.25L3.02525 11.9827L2.8614 12.0661V12.25H3.1614ZM8.65004 9.45455H8.95004V8.96508L8.51388 9.18722L8.65004 9.45455ZM8.65004 10.5455L8.78025 10.8157L8.95004 10.7339V10.5455H8.65004ZM4.43981 12.5739L4.17148 12.4397L3.77862 13.2254L4.57002 12.8441L4.43981 12.5739ZM4.4739 12.5057H4.7739L4.20557 12.3715L4.4739 12.5057ZM4.4739 12.6761L4.20557 12.8103L4.7739 12.6761H4.4739ZM4.43981 12.608L4.57002 12.3377L3.77862 11.9564L4.17148 12.7421L4.43981 12.608ZM8.65004 14.6364H8.95004V14.4479L8.78025 14.3661L8.65004 14.6364ZM8.65004 15.7273L8.51388 15.9946L8.95004 16.2167V15.7273H8.65004ZM3.4614 12.9318V12.25H2.8614V12.9318H3.4614ZM3.29755 12.5173L8.78619 9.72187L8.51388 9.18722L3.02525 11.9827L3.29755 12.5173ZM8.35004 9.45455V10.5455H8.95004V9.45455H8.35004ZM8.51982 10.2752L4.3096 12.3036L4.57002 12.8441L8.78025 10.8157L8.51982 10.2752ZM4.70814 12.708L4.74223 12.6398L4.20557 12.3715L4.17148 12.4397L4.70814 12.708ZM4.1739 12.5057V12.6761H4.7739V12.5057H4.1739ZM4.74223 12.542L4.70814 12.4738L4.17148 12.7421L4.20557 12.8103L4.74223 12.542ZM4.3096 12.8782L8.51982 14.9066L8.78025 14.3661L4.57002 12.3377L4.3096 12.8782ZM8.35004 14.6364V15.7273H8.95004V14.6364H8.35004ZM8.78619 15.4599L3.29755 12.6645L3.02525 13.1991L8.51388 15.9946L8.78619 15.4599ZM13.867 6.86364L14.1567 6.94161L14.2584 6.56364H13.867V6.86364ZM11.0545 17.3125V17.6125H11.2844L11.3442 17.3905L11.0545 17.3125ZM10.1341 17.3125L9.84437 17.2345L9.74263 17.6125H10.1341V17.3125ZM12.9466 6.86364V6.56364H12.7166L12.6569 6.78566L12.9466 6.86364ZM13.5773 6.78566L10.7648 17.2345L11.3442 17.3905L14.1567 6.94161L13.5773 6.78566ZM11.0545 17.0125H10.1341V17.6125H11.0545V17.0125ZM10.4237 17.3905L13.2362 6.94161L12.6569 6.78566L9.84437 17.2345L10.4237 17.3905ZM12.9466 7.16364H13.867V6.56364H12.9466V7.16364ZM20.8375 12.9318L20.9737 13.1991L21.1375 13.1157V12.9318H20.8375ZM15.3489 15.7273H15.0489V16.2167L15.4851 15.9946L15.3489 15.7273ZM15.3489 14.6364L15.2187 14.3661L15.0489 14.4479V14.6364H15.3489ZM19.5591 12.608L19.8275 12.7421L20.2203 11.9564L19.4289 12.3377L19.5591 12.608ZM19.525 12.6761H19.225L19.7934 12.8103L19.525 12.6761ZM19.525 12.5057L19.7934 12.3715L19.225 12.5057H19.525ZM19.5591 12.5739L19.4289 12.8441L20.2203 13.2254L19.8275 12.4397L19.5591 12.5739ZM15.3489 10.5455H15.0489V10.7339L15.2187 10.8157L15.3489 10.5455ZM15.3489 9.45455L15.4851 9.18722L15.0489 8.96508V9.45455H15.3489ZM20.8375 12.25H21.1375V12.0661L20.9737 11.9827L20.8375 12.25ZM20.7014 12.6645L15.2127 15.4599L15.4851 15.9946L20.9737 13.1991L20.7014 12.6645ZM15.6489 15.7273V14.6364H15.0489V15.7273H15.6489ZM15.4791 14.9066L19.6893 12.8782L19.4289 12.3377L15.2187 14.3661L15.4791 14.9066ZM19.2908 12.4738L19.2567 12.542L19.7934 12.8103L19.8275 12.7421L19.2908 12.4738ZM19.825 12.6761V12.5057H19.225V12.6761H19.825ZM19.2567 12.6398L19.2908 12.708L19.8275 12.4397L19.7934 12.3715L19.2567 12.6398ZM19.6893 12.3036L15.4791 10.2752L15.2187 10.8157L19.4289 12.8441L19.6893 12.3036ZM15.6489 10.5455V9.45455H15.0489V10.5455H15.6489ZM15.2127 9.72187L20.7014 12.5173L20.9737 11.9827L15.4851 9.18722L15.2127 9.72187ZM20.5375 12.25V12.9318H21.1375V12.25H20.5375Z" fill="black" mask="url(#path-1-outside-1_2_37)"/>
</g>
<defs>
<clipPath id="clip0_2_37">
<rect width="24" height="24" fill="white"/>
</clipPath>
</defs>
</svg>
