<svg width="24" height="24" viewBox="0 0 24 24" fill="none" xmlns="http://www.w3.org/2000/svg">
<g clip-path="url(#clip0_2_56)">
<mask id="path-1-outside-1_2_56" maskUnits="userSpaceOnUse" x="-4.09662" y="5.13771" width="23.3165" height="20.8479" fill="black">
<rect fill="white" x="-4.09662" y="5.13771" width="23.3165" height="20.8479"/>
<path d="M-0.400563 11.6129L-0.0352601 11.0372L6.09686 11.6175L5.51238 12.5386L0.870658 11.9956L0.935973 11.9563L0.844647 12.1002L0.852393 12.0244L3.32056 15.9928L2.73608 16.914L-0.400563 11.6129ZM11.89 12.225L3.91699 19.5407L3.13979 19.0476L11.1128 11.7318L11.89 12.225ZM14.5244 21.0834L8.39232 20.5031L8.97681 19.5819L13.6185 20.125L13.5532 20.1643L13.6445 20.0204L13.6368 20.0962L11.1686 16.1277L11.7531 15.2066L14.8897 20.5077L14.5244 21.0834Z"/>
</mask>
<path d="M-0.400563 11.6129L-0.0352601 11.0372L6.09686 11.6175L5.51238 12.5386L0.870658 11.9956L0.935973 11.9563L0.844647 12.1002L0.852393 12.0244L3.32056 15.9928L2.73608 16.914L-0.400563 11.6129ZM11.89 12.225L3.91699 19.5407L3.13979 19.0476L11.1128 11.7318L11.89 12.225ZM14.5244 21.0834L8.39232 20.5031L8.97681 19.5819L13.6185 20.125L13.5532 20.1643L13.6445 20.0204L13.6368 20.0962L11.1686 16.1277L11.7531 15.2066L14.8897 20.5077L14.5244 21.0834Z" fill="#313840"/>
<path d="M-0.400563 11.6129L-0.653871 11.4522L-0.752387 11.6074L-0.658751 11.7657L-0.400563 11.6129ZM-0.0352601 11.0372L-0.0069956 10.7385L-0.190052 10.7212L-0.288568 10.8765L-0.0352601 11.0372ZM6.09686 11.6175L6.35017 11.7783L6.61241 11.365L6.12513 11.3189L6.09686 11.6175ZM5.51238 12.5386L5.47752 12.8366L5.66471 12.8585L5.76569 12.6994L5.51238 12.5386ZM0.870658 11.9956L0.715974 11.7386L-0.0367042 12.1915L0.835798 12.2936L0.870658 11.9956ZM0.935973 11.9563L1.18928 12.117L0.78129 11.6993L0.935973 11.9563ZM0.844647 12.1002L0.5462 12.0697L1.09796 12.261L0.844647 12.1002ZM0.852393 12.0244L1.10714 11.866L0.6432 11.12L0.553945 11.9939L0.852393 12.0244ZM3.32056 15.9928L3.57387 16.1536L3.67484 15.9944L3.57531 15.8344L3.32056 15.9928ZM2.73608 16.914L2.47789 17.0667L2.72714 17.488L2.98938 17.0747L2.73608 16.914ZM-0.147255 11.7736L0.218048 11.1979L-0.288568 10.8765L-0.653871 11.4522L-0.147255 11.7736ZM-0.0635247 11.3359L6.0686 11.9162L6.12513 11.3189L-0.0069956 10.7385L-0.0635247 11.3359ZM5.84355 11.4568L5.25907 12.3779L5.76569 12.6994L6.35017 11.7783L5.84355 11.4568ZM5.54724 12.2407L0.905517 11.6976L0.835798 12.2936L5.47752 12.8366L5.54724 12.2407ZM1.02534 12.2527L1.09066 12.2133L0.78129 11.6993L0.715974 11.7386L1.02534 12.2527ZM0.682665 11.7956L0.591339 11.9395L1.09796 12.261L1.18928 12.117L0.682665 11.7956ZM1.14309 12.1307L1.15084 12.0549L0.553945 11.9939L0.5462 12.0697L1.14309 12.1307ZM0.597644 12.1828L3.06581 16.1513L3.57531 15.8344L1.10714 11.866L0.597644 12.1828ZM3.06725 15.8321L2.48277 16.7532L2.98938 17.0747L3.57387 16.1536L3.06725 15.8321ZM2.99426 16.7612L-0.142375 11.4601L-0.658751 11.7657L2.47789 17.0667L2.99426 16.7612ZM11.89 12.225L12.0928 12.4461L12.3813 12.1814L12.0507 11.9717L11.89 12.225ZM3.91699 19.5407L3.75625 19.794L3.9504 19.9172L4.11981 19.7618L3.91699 19.5407ZM3.13979 19.0476L2.93697 18.8265L2.64855 19.0912L2.97906 19.3009L3.13979 19.0476ZM11.1128 11.7318L11.2736 11.4785L11.0794 11.3553L10.91 11.5108L11.1128 11.7318ZM11.6872 12.004L3.71416 19.3197L4.11981 19.7618L12.0928 12.4461L11.6872 12.004ZM4.07772 19.2874L3.30053 18.7943L2.97906 19.3009L3.75625 19.794L4.07772 19.2874ZM3.34262 19.2686L11.3156 11.9529L10.91 11.5108L2.93697 18.8265L3.34262 19.2686ZM10.9521 11.9852L11.7293 12.4783L12.0507 11.9717L11.2736 11.4785L10.9521 11.9852ZM14.5244 21.0834L14.4962 21.382L14.6792 21.3994L14.7778 21.2441L14.5244 21.0834ZM8.39232 20.5031L8.13902 20.3423L7.87677 20.7556L8.36406 20.8017L8.39232 20.5031ZM8.97681 19.5819L9.01167 19.284L8.82448 19.2621L8.7235 19.4212L8.97681 19.5819ZM13.6185 20.125L13.7732 20.382L14.5259 19.9291L13.6534 19.827L13.6185 20.125ZM13.5532 20.1643L13.2999 20.0036L13.7079 20.4213L13.5532 20.1643ZM13.6445 20.0204L13.943 20.0508L13.3912 19.8596L13.6445 20.0204ZM13.6368 20.0962L13.382 20.2546L13.846 21.0006L13.9352 20.1267L13.6368 20.0962ZM11.1686 16.1277L10.9153 15.967L10.8143 16.1261L10.9139 16.2862L11.1686 16.1277ZM11.7531 15.2066L12.0113 15.0539L11.762 14.6326L11.4998 15.0459L11.7531 15.2066ZM14.8897 20.5077L15.1431 20.6684L15.2416 20.5132L15.1479 20.3549L14.8897 20.5077ZM14.5527 20.7847L8.42059 20.2044L8.36406 20.8017L14.4962 21.382L14.5527 20.7847ZM8.64563 20.6638L9.23012 19.7427L8.7235 19.4212L8.13902 20.3423L8.64563 20.6638ZM8.94195 19.8799L13.5837 20.423L13.6534 19.827L9.01167 19.284L8.94195 19.8799ZM13.4638 19.8679L13.3985 19.9072L13.7079 20.4213L13.7732 20.382L13.4638 19.8679ZM13.8065 20.325L13.8978 20.1811L13.3912 19.8596L13.2999 20.0036L13.8065 20.325ZM13.3461 19.9899L13.3383 20.0657L13.9352 20.1267L13.943 20.0508L13.3461 19.9899ZM13.8915 19.9378L11.4234 15.9693L10.9139 16.2862L13.382 20.2546L13.8915 19.9378ZM11.4219 16.2885L12.0064 15.3674L11.4998 15.0459L10.9153 15.967L11.4219 16.2885ZM11.4949 15.3594L14.6316 20.6605L15.1479 20.3549L12.0113 15.0539L11.4949 15.3594ZM14.6364 20.3469L14.2711 20.9226L14.7778 21.2441L15.1431 20.6684L14.6364 20.3469Z" fill="#313840" mask="url(#path-1-outside-1_2_56)"/>
</g>
<defs>
<clipPath id="clip0_2_56">
<rect width="24" height="24" fill="white"/>
</clipPath>
</defs>
</svg>
