<svg width="24" height="24" viewBox="0 0 24 24" fill="none" xmlns="http://www.w3.org/2000/svg">
<g clip-path="url(#clip0_1_11)">
<path d="M10.3839 16.0909V15.9886C10.3952 14.9034 10.5089 14.0398 10.7248 13.3977C10.9407 12.7557 11.2475 12.2358 11.6452 11.8381C12.043 11.4403 12.5202 11.0739 13.0771 10.7386C13.4123 10.5341 13.7134 10.2926 13.9805 10.0142C14.2475 9.73011 14.4577 9.40341 14.6112 9.03409C14.7702 8.66477 14.8498 8.25568 14.8498 7.80682C14.8498 7.25 14.7191 6.76705 14.4577 6.35795C14.1964 5.94886 13.8469 5.63352 13.4094 5.41193C12.9719 5.19034 12.4862 5.07954 11.9521 5.07954C11.4862 5.07954 11.0373 5.17614 10.6055 5.36932C10.1737 5.5625 9.81286 5.86648 9.52308 6.28125C9.23331 6.69602 9.0657 7.23864 9.02024 7.90909H6.87251C6.91797 6.94318 7.16797 6.11648 7.62251 5.42898C8.08274 4.74148 8.68786 4.21591 9.43786 3.85227C10.1935 3.48864 11.0316 3.30682 11.9521 3.30682C12.9521 3.30682 13.8214 3.50568 14.56 3.90341C15.3043 4.30114 15.8782 4.84659 16.2816 5.53977C16.6907 6.23295 16.8952 7.02273 16.8952 7.90909C16.8952 8.53409 16.7987 9.09943 16.6055 9.60511C16.418 10.1108 16.1452 10.5625 15.7873 10.9602C15.435 11.358 15.0089 11.7102 14.5089 12.017C14.0089 12.3295 13.6083 12.6591 13.3072 13.0057C13.006 13.3466 12.7873 13.7528 12.6509 14.2244C12.5146 14.696 12.4407 15.2841 12.4293 15.9886V16.0909H10.3839ZM11.4748 21.1364C11.0543 21.1364 10.6935 20.9858 10.3924 20.6847C10.0913 20.3835 9.9407 20.0227 9.9407 19.6023C9.9407 19.1818 10.0913 18.821 10.3924 18.5199C10.6935 18.2187 11.0543 18.0682 11.4748 18.0682C11.8952 18.0682 12.256 18.2187 12.5572 18.5199C12.8583 18.821 13.0089 19.1818 13.0089 19.6023C13.0089 19.8807 12.9379 20.1364 12.7958 20.3693C12.6594 20.6023 12.4748 20.7898 12.2418 20.9318C12.0146 21.0682 11.7589 21.1364 11.4748 21.1364Z" fill="black"/>
<circle cx="12" cy="12" r="11" stroke="black" stroke-width="2"/>
</g>
<defs>
<clipPath id="clip0_1_11">
<rect width="24" height="24" fill="white"/>
</clipPath>
</defs>
</svg>
