<svg width="24" height="24" viewBox="0 0 24 24" fill="none" xmlns="http://www.w3.org/2000/svg">
<g clip-path="url(#clip0_2_44)">
<path fill-rule="evenodd" clip-rule="evenodd" d="M5.4033 14.3197L5.40314 14.32L5.3428 14.4392L-3.57839 9.92119L-3.80429 10.3672L-4.03019 10.8133L-4.25609 11.2594L4.6651 15.7774L-0.0788136 25.1446L0.367246 25.3705L0.813305 25.5964L1.25936 25.8223L6.00328 16.4551L6.56848 16.7413L6.56879 16.7415L6.5694 16.7418L6.57033 16.7423L6.57156 16.7429L6.5731 16.7437L6.57495 16.7446L6.57512 16.7447L6.5771 16.7457L6.57734 16.7458L6.57955 16.7469L6.57988 16.7471L6.58231 16.7483L6.58274 16.7485L6.58537 16.7499L6.58593 16.7502L6.58872 16.7516L6.58944 16.7519L6.59237 16.7534L6.59327 16.7539L6.59632 16.7554L6.59744 16.756L6.60057 16.7576L6.60193 16.7583L6.60511 16.7599L6.60676 16.7607L6.60994 16.7623L6.61191 16.7633L6.61507 16.7649L6.6174 16.7661L6.62048 16.7677L6.62322 16.769L6.62619 16.7705L6.62937 16.7722L6.63218 16.7736L6.63586 16.7754L6.63846 16.7768L6.64269 16.7789L6.64503 16.7801L6.64985 16.7825L6.65188 16.7836L6.65736 16.7863L6.65902 16.7872L6.66521 16.7903L6.66643 16.7909L6.67339 16.7944L6.67413 16.7948L6.68193 16.7988L6.68211 16.7989L6.69036 16.803L6.6908 16.8033L6.6989 16.8074L6.70002 16.8079L6.70771 16.8118L6.70959 16.8128L6.71679 16.8164L6.71951 16.8178L6.72615 16.8212L6.72977 16.823L6.73578 16.826L6.74039 16.8284L6.74568 16.8311L6.75136 16.8339L6.75585 16.8362L6.76268 16.8397L6.76629 16.8415L6.77436 16.8456L6.777 16.8469L6.78639 16.8517L6.78798 16.8525L6.79877 16.8579L6.79922 16.8582L6.81072 16.864L6.81152 16.8644L6.82249 16.87L6.82462 16.871L6.83451 16.876L6.83809 16.8779L6.8468 16.8823L6.85191 16.8849L6.85935 16.8886L6.8661 16.892L6.87215 16.8951L6.88065 16.8994L6.88521 16.9017L6.89557 16.907L6.89853 16.9085L6.91086 16.9147L6.9121 16.9153L6.92592 16.9223L6.92651 16.9226L6.94 16.9295L6.94253 16.9307L6.95433 16.9367L6.95892 16.9391L6.9689 16.9441L6.97568 16.9475L6.98372 16.9516L6.99282 16.9562L6.99879 16.9592L7.01033 16.9651L7.01411 16.967L7.02821 16.9741L7.02967 16.9749L7.04547 16.9829L7.04647 16.9834L7.06152 16.991L7.06511 16.9928L7.0778 16.9993L7.08412 17.0025L7.09433 17.0076L7.10352 17.0123L7.11109 17.0161L7.1233 17.0223L7.12809 17.0247L7.14345 17.0325L7.14533 17.0335L7.1628 17.0423L7.164 17.0429L7.1805 17.0513L7.18492 17.0535L7.19844 17.0604L7.20624 17.0643L7.21661 17.0696L7.22794 17.0753L7.235 17.0789L7.25002 17.0865L7.25363 17.0883L7.27248 17.0978L7.29156 17.1075L7.29537 17.1094L7.31086 17.1173L7.31863 17.1212L7.33039 17.1272L7.34229 17.1332L7.35014 17.1372L7.36633 17.1454L7.37011 17.1473L7.3903 17.1575L7.39078 17.1578L7.41071 17.1679L7.41562 17.1703L7.43134 17.1783L7.44086 17.1831L7.45218 17.1889L7.4665 17.1961L7.47324 17.1995L7.49254 17.2093L7.49451 17.2103L7.516 17.2212L7.51898 17.2227L7.5377 17.2322L7.54582 17.2363L7.5596 17.2433L7.57307 17.2501L7.58172 17.2545L7.60072 17.2641L7.60404 17.2658L7.62657 17.2772L7.62879 17.2783L7.64931 17.2887L7.65725 17.2927L7.67225 17.3003L7.68613 17.3073L7.69539 17.312L7.71542 17.3222L7.71873 17.3238L7.74228 17.3358L7.74512 17.3372L7.76602 17.3478L7.77523 17.3525L7.78996 17.3599L7.80576 17.3679L7.8141 17.3721L7.8367 17.3836L7.83844 17.3845L7.86296 17.3969L7.86806 17.3995L7.88768 17.4094L7.89983 17.4156L7.9126 17.422L7.93203 17.4319L7.9377 17.4347L7.963 17.4476L7.96464 17.4484L7.98848 17.4605L7.99768 17.4651L8.01415 17.4735L8.03113 17.4821L8.04 17.4865L8.06502 17.4992L8.06604 17.4997L8.09226 17.513L8.09932 17.5166L8.11867 17.5264L8.13406 17.5342L8.14525 17.5399L8.16922 17.552L8.17202 17.5534L8.19896 17.5671L8.20481 17.57L8.22608 17.5808L8.24083 17.5883L8.25338 17.5946L8.27728 17.6067L8.28085 17.6085L8.3085 17.6225L8.31416 17.6254L8.33631 17.6366L8.35148 17.6443L8.3643 17.6508L8.38923 17.6634L8.39246 17.665L8.42079 17.6794L8.42741 17.6827L8.44928 17.6938L8.46604 17.7023L8.47794 17.7083L8.5051 17.7221L8.50677 17.7229L8.53576 17.7376L8.5446 17.7421L8.56491 17.7524L8.58454 17.7623L8.59423 17.7672L8.6237 17.7822L8.62493 17.7828L8.65334 17.7972L8.66576 17.8035L8.68313 17.8123L8.70703 17.8244L8.71307 17.8274L8.74318 17.8427L8.74875 17.8455L8.77343 17.858L8.79091 17.8668L8.80384 17.8734L8.83353 17.8884L8.8344 17.8889L8.86512 17.9044L8.87659 17.9102L8.89598 17.92L8.9201 17.9323L8.92699 17.9357L8.95814 17.9515L8.96407 17.9545L8.98944 17.9674L9.00849 17.977L9.02089 17.9833L9.05248 17.9993L9.05336 17.9998L9.08421 18.0154L9.09869 18.0227L9.11608 18.0315L9.14447 18.0459L9.14809 18.0477L9.18024 18.064L9.19072 18.0693L9.21252 18.0804L9.23742 18.093L9.24494 18.0968L9.2775 18.1133L9.28458 18.1168L9.31019 18.1298L9.33221 18.141L9.34301 18.1464L9.37596 18.1631L9.38029 18.1653L9.40904 18.1799L9.42884 18.1899L9.44225 18.1967L9.47559 18.2136L9.47786 18.2147L9.50905 18.2305L9.52734 18.2398L9.54264 18.2475L9.57635 18.2646L9.57729 18.2651L9.61019 18.2817L9.62771 18.2906L9.64414 18.2989L9.67822 18.3162L9.6786 18.3164L9.71241 18.3335L9.72996 18.3424L9.74672 18.3509L9.78115 18.3683L9.7818 18.3687L9.81569 18.3858L9.8341 18.3951L9.85035 18.4034L9.88512 18.421L9.88688 18.4219L9.92 18.4386L9.94014 18.4488L9.95499 18.4564L9.99009 18.4741L9.99388 18.4761L10.0253 18.492L10.0481 18.5035L10.0606 18.5099L10.096 18.5278L10.1028 18.5312L10.1315 18.5458L10.158 18.5592L10.1672 18.5638L10.2029 18.5819L10.2136 18.5873L10.2387 18.6001L10.2698 18.6158L10.2747 18.6183L10.3107 18.6365L10.3264 18.6445L10.3468 18.6548L10.383 18.6731L10.3835 18.6734L10.4193 18.6915L10.4411 18.7026L10.4557 18.71L10.4922 18.7284L10.4992 18.732L10.5288 18.747L10.5578 18.7616L10.5655 18.7655L10.6023 18.7842L10.6168 18.7915L10.6391 18.8028L10.676 18.8215L10.6764 18.8217L10.7131 18.8403L10.7364 18.8521L10.7502 18.8591L10.7874 18.8779L10.797 18.8828L10.8246 18.8968L10.858 18.9137L10.862 18.9157L10.8994 18.9347L10.9196 18.9449L10.9369 18.9536L10.9745 18.9727L10.9816 18.9763L11.0121 18.9917L11.0442 19.008L11.0499 19.0108L11.0877 19.03L11.1072 19.0399L11.1255 19.0492L11.1635 19.0684L11.1707 19.0721L11.2015 19.0876L11.2348 19.1045L11.2396 19.1069L11.2777 19.1262L11.2993 19.1372L11.3159 19.1456L11.3542 19.165L11.3644 19.1701L11.3925 19.1844L11.43 19.2033L11.4309 19.2038L11.4694 19.2233L11.496 19.2368L11.5079 19.2428L11.5464 19.2623L11.5626 19.2705L11.5851 19.2819L11.6238 19.3015L11.6297 19.3045L11.6625 19.3211L11.6973 19.3387L11.7013 19.3408L11.7401 19.3604L11.7654 19.3732L11.779 19.3801L11.818 19.3998L11.834 19.408L11.8569 19.4196L11.896 19.4394L11.9032 19.443L11.9351 19.4591L11.9728 19.4783L11.9742 19.479L12.0134 19.4988L12.043 19.5138L12.0526 19.5187L12.0918 19.5385L12.1137 19.5496L12.1311 19.5584L12.1704 19.5783L12.1849 19.5857L12.2098 19.5983L12.2492 19.6182L12.2567 19.622L12.2886 19.6382L12.3281 19.6582L12.3289 19.6586L12.3676 19.6782L12.4017 19.6955L12.4071 19.6982L12.4467 19.7183L12.475 19.7326L12.4863 19.7383L12.5259 19.7584L12.5488 19.77L12.5655 19.7784L12.6052 19.7985L12.6232 19.8076L12.6449 19.8186L12.6846 19.8387L12.6981 19.8456L12.7244 19.8589L12.7641 19.879L12.7735 19.8838L12.8039 19.8991L12.8437 19.9193L12.8495 19.9222L12.8835 19.9395L12.9233 19.9596L12.9259 19.961L12.9631 19.9798L13.003 20L13.0428 20.0202L13.0805 20.0392L13.0827 20.0404L13.1226 20.0605L13.1586 20.0788L13.1625 20.0807L13.2024 20.1009L13.2372 20.1186L13.2423 20.1212L13.2822 20.1414L13.3164 20.1587L13.3221 20.1616L13.362 20.1818L13.3961 20.1991L13.4019 20.202L13.4418 20.2222L13.4763 20.2397L13.4817 20.2424L13.5216 20.2626L13.5571 20.2806L13.5615 20.2828L13.6013 20.303L13.6385 20.3218L13.6412 20.3232L13.6811 20.3434L13.7203 20.3633L13.721 20.3636L13.7608 20.3838L13.8007 20.404L13.8028 20.405L13.8405 20.4241L13.8803 20.4443L13.8857 20.447L13.9201 20.4644L13.9599 20.4846L13.9692 20.4893L13.9996 20.5047L14.0394 20.5249L14.0533 20.5319L14.0791 20.545L14.1188 20.5651L14.1379 20.5748L14.1585 20.5852L14.1981 20.6053L14.2231 20.6179L14.2378 20.6253L14.2774 20.6454L14.3088 20.6613L14.317 20.6654L14.3565 20.6854L14.3951 20.705L14.396 20.7055L14.4355 20.7255L14.4749 20.7454L14.4819 20.749L14.5144 20.7654L14.5538 20.7853L14.5693 20.7932L14.5931 20.8053L14.6324 20.8252L14.6573 20.8378L14.6717 20.8451L14.7109 20.8649L14.7458 20.8826L14.7501 20.8848L14.7892 20.9046L14.8283 20.9244L14.8348 20.9277L14.8674 20.9442L14.9064 20.9639L14.9245 20.9731L14.9454 20.9837L14.9843 21.0034L15.0232 21.0231L15.062 21.0427L15.1007 21.0624L15.1395 21.082L15.1781 21.1015L15.2167 21.1211L15.2552 21.1406L15.2937 21.1601L15.3322 21.1796L15.3705 21.199L15.5964 20.7529L15.8223 20.3069L16.0482 19.8608L16.0099 19.8414L15.9714 19.8219L15.9329 19.8024L15.8944 19.7829L15.8558 19.7634L15.8172 19.7438L15.7784 19.7242L15.7397 19.7046L15.7009 19.6849L15.662 19.6652L15.6231 19.6455L15.6022 19.6349L15.5841 19.6258L15.5451 19.606L15.5125 19.5895L15.506 19.5862L15.4669 19.5664L15.4278 19.5466L15.4235 19.5444L15.3886 19.5268L15.3494 19.5069L15.335 19.4996L15.3101 19.487L15.2708 19.4671L15.247 19.4551L15.2315 19.4472L15.1921 19.4272L15.1596 19.4108L15.1527 19.4073L15.1132 19.3873L15.0737 19.3673L15.0728 19.3668L15.0342 19.3473L14.9947 19.3272L14.9865 19.3231L14.9551 19.3072L14.9155 19.2871L14.9008 19.2797L14.8758 19.2671L14.8362 19.247L14.8156 19.2366L14.7965 19.2269L14.7568 19.2068L14.731 19.1937L14.7171 19.1867L14.6773 19.1665L14.647 19.1512L14.6376 19.1464L14.5978 19.1263L14.5634 19.1089L14.558 19.1061L14.5182 19.0859L14.4805 19.0668L14.4784 19.0658L14.4385 19.0456L14.3987 19.0254L14.398 19.0251L14.3588 19.0052L14.3189 18.985L14.3162 18.9836L14.2791 18.9648L14.2392 18.9446L14.2348 18.9424L14.1993 18.9244L14.1594 18.9042L14.1541 18.9015L14.1195 18.884L14.0796 18.8638L14.0738 18.8609L14.0397 18.8436L13.9998 18.8234L13.9941 18.8205L13.9599 18.8032L13.92 18.783L13.9149 18.7804L13.8801 18.7628L13.8402 18.7426L13.8363 18.7406L13.8003 18.7224L13.7604 18.7022L13.7582 18.7011L13.7205 18.682L13.6807 18.6618L13.6408 18.6416L13.6036 18.6228L13.601 18.6214L13.5612 18.6013L13.5272 18.5841L13.5214 18.5811L13.4816 18.561L13.4512 18.5456L13.4418 18.5408L13.4021 18.5207L13.3758 18.5074L13.3623 18.5006L13.3226 18.4805L13.3009 18.4695L13.2829 18.4604L13.2432 18.4403L13.2265 18.4318L13.2036 18.4202L13.164 18.4001L13.1527 18.3944L13.1244 18.3801L13.0848 18.36L13.0794 18.3573L13.0453 18.34L13.0066 18.3204L13.0058 18.32L12.9663 18.3L12.9344 18.2838L12.9269 18.2801L12.8875 18.2601L12.8626 18.2475L12.8481 18.2402L12.8088 18.2203L12.7914 18.2114L12.7695 18.2004L12.7303 18.1805L12.7207 18.1756L12.6911 18.1606L12.6519 18.1408L12.6505 18.1401L12.6128 18.121L12.5809 18.1048L12.5737 18.1012L12.5346 18.0814L12.5117 18.0698L12.4957 18.0617L12.4567 18.0419L12.4431 18.035L12.4178 18.0222L12.379 18.0026L12.375 18.0006L12.3402 17.9829L12.3074 17.9663L12.3015 17.9633L12.2628 17.9437L12.2403 17.9323L12.2241 17.9242L12.1856 17.9046L12.1737 17.8986L12.1471 17.8851L12.1086 17.8656L12.1077 17.8652L12.0702 17.8462L12.0421 17.832L12.0319 17.8268L11.9936 17.8074L11.977 17.799L11.9554 17.7881L11.9173 17.7687L11.9125 17.7663L11.8792 17.7495L11.8484 17.7339L11.8412 17.7302L11.8032 17.711L11.7849 17.7017L11.7654 17.6918L11.7276 17.6727L11.7219 17.6698L11.6898 17.6536L11.6593 17.6381L11.6522 17.6345L11.6146 17.6155L11.5973 17.6067L11.5771 17.5965L11.5397 17.5775L11.5357 17.5755L11.5023 17.5586L11.4747 17.5446L11.4651 17.5397L11.4279 17.5209L11.4142 17.5139L11.3908 17.5021L11.3541 17.4835L11.3537 17.4834L11.3168 17.4647L11.2945 17.4534L11.28 17.446L11.2432 17.4274L11.2355 17.4235L11.2065 17.4088L11.1769 17.3938L11.1699 17.3903L11.1334 17.3718L11.1188 17.3644L11.097 17.3533L11.0612 17.3352L11.0607 17.335L11.0245 17.3166L11.0041 17.3063L10.9884 17.2983L10.9524 17.2801L10.9475 17.2776L10.9164 17.2619L10.8913 17.2492L10.8806 17.2437L10.8449 17.2256L10.8357 17.221L10.8093 17.2076L10.7805 17.193L10.7737 17.1896L10.7383 17.1717L10.7258 17.1653L10.703 17.1538L10.6716 17.1379L10.6678 17.136L10.6327 17.1182L10.6178 17.1107L10.5977 17.1005L10.5646 17.0837L10.5628 17.0828L10.5281 17.0652L10.5118 17.057L10.4934 17.0476L10.4595 17.0305L10.4589 17.0302L10.4244 17.0127L10.4077 17.0042L10.3901 16.9953L10.3563 16.9782L10.3559 16.978L10.3218 16.9608L10.3054 16.9524L10.2879 16.9436L10.255 16.9269L10.2541 16.9264L10.2203 16.9094L10.205 16.9016L10.1868 16.8924L10.1556 16.8766L10.1533 16.8754L10.12 16.8585L10.1065 16.8517L10.0867 16.8417L10.058 16.8271L10.0537 16.8249L10.0207 16.8083L10.0099 16.8028L9.98789 16.7916L9.96228 16.7787L9.9552 16.7751L9.92264 16.7586L9.91512 16.7548L9.89022 16.7422L9.86842 16.7311L9.85794 16.7258L9.82579 16.7095L9.82218 16.7077L9.79378 16.6933L9.77639 16.6845L9.76191 16.6772L9.73106 16.6616L9.73018 16.6611L9.69859 16.6451L9.68619 16.6388L9.66714 16.6292L9.64177 16.6164L9.63584 16.6133L9.60469 16.5976L9.59781 16.5941L9.57368 16.5819L9.55429 16.572L9.54282 16.5662L9.51211 16.5507L9.51123 16.5502L9.48154 16.5352L9.46862 16.5287L9.45113 16.5198L9.42645 16.5073L9.42088 16.5045L9.39078 16.4892L9.38473 16.4862L9.36083 16.4741L9.34346 16.4653L9.33104 16.459L9.30263 16.4446L9.3014 16.444L9.27193 16.4291L9.26225 16.4241L9.24262 16.4142L9.2223 16.4039L9.21346 16.3994L9.18447 16.3848L9.1828 16.3839L9.15565 16.3702L9.14374 16.3641L9.12698 16.3556L9.10511 16.3446L9.09849 16.3412L9.07016 16.3269L9.06693 16.3252L9.042 16.3126L9.02918 16.3061L9.01401 16.2984L8.99186 16.2872L8.9862 16.2843L8.95855 16.2703L8.95498 16.2685L8.93108 16.2564L8.91853 16.2501L8.90378 16.2426L8.88251 16.2318L8.87666 16.2289L8.84972 16.2152L8.84692 16.2138L8.82295 16.2017L8.81176 16.196L8.79637 16.1882L8.77703 16.1784L8.76996 16.1748L8.74374 16.1616L8.74272 16.161L8.7177 16.1484L8.70884 16.1439L8.69185 16.1353L8.67538 16.1269L8.66618 16.1223L8.64234 16.1102L8.6407 16.1094L8.6154 16.0966L8.60973 16.0937L8.5903 16.0838L8.57753 16.0774L8.56539 16.0712L8.54576 16.0613L8.54067 16.0587L8.51614 16.0463L8.5144 16.0454L8.4918 16.034L8.48346 16.0297L8.46766 16.0217L8.45293 16.0143L8.44372 16.0096L8.42282 15.999L8.41998 15.9976L8.39643 15.9857L8.39312 15.984L8.37309 15.9738L8.36383 15.9692L8.34995 15.9621L8.33496 15.9545L8.32701 15.9505L8.30649 15.9401L8.30427 15.939L8.28174 15.9276L8.27843 15.9259L8.25942 15.9163L8.25077 15.9119L8.2373 15.9051L8.22352 15.8981L8.2154 15.894L8.19668 15.8845L8.1937 15.883L8.17222 15.8721L8.17024 15.8711L8.15094 15.8613L8.1442 15.8579L8.12989 15.8507L8.11856 15.8449L8.10904 15.8401L8.09332 15.8322L8.08841 15.8297L8.06848 15.8196L8.068 15.8193L8.04781 15.8091L8.04404 15.8072L8.02784 15.799L8.01999 15.795L8.00809 15.789L7.99633 15.783L7.98857 15.7791L7.97307 15.7713L7.96926 15.7693L7.9502 15.7597L7.93133 15.7501L7.92773 15.7483L7.9127 15.7407L7.90564 15.7371L7.89431 15.7314L7.88394 15.7261L7.87614 15.7222L7.86262 15.7153L7.8582 15.7131L7.8417 15.7047L7.8405 15.7041L7.82303 15.6953L7.82116 15.6943L7.80579 15.6865L7.801 15.6841L7.78879 15.6779L7.78122 15.6741L7.77203 15.6694L7.76182 15.6643L7.7555 15.6611L7.74281 15.6546L7.73922 15.6528L7.72417 15.6452L7.72317 15.6447L7.70737 15.6367L7.70591 15.636L7.69181 15.6288L7.68803 15.6269L7.67649 15.6211L7.67052 15.618L7.66142 15.6134L7.65339 15.6094L7.6466 15.6059L7.63662 15.6009L7.63203 15.5985L7.62023 15.5926L7.6177 15.5913L7.60421 15.5845L7.60363 15.5842L7.5898 15.5772L7.58856 15.5765L7.57623 15.5703L7.57327 15.5688L7.56291 15.5635L7.55836 15.5612L7.54985 15.5569L7.5438 15.5539L7.53705 15.5504L7.52961 15.5467L7.5245 15.5441L7.51579 15.5397L7.51221 15.5379L7.50232 15.5329L7.50019 15.5318L7.48922 15.5262L7.48842 15.5258L7.47692 15.52L7.47647 15.5198L7.46568 15.5143L7.46409 15.5135L7.4547 15.5087L7.45206 15.5074L7.444 15.5033L7.44038 15.5015L7.43355 15.498L7.42906 15.4958L7.42338 15.4929L7.41809 15.4902L7.41348 15.4879L7.40748 15.4848L7.40385 15.483L7.39721 15.4796L7.39449 15.4782L7.38729 15.4746L7.38541 15.4736L7.37772 15.4698L7.3766 15.4692L7.3685 15.4651L7.36806 15.4649L7.35981 15.4607L7.35963 15.4606L7.35183 15.4566L7.3511 15.4563L7.34413 15.4527L7.34291 15.4521L7.33672 15.449L7.33506 15.4482L7.32958 15.4454L7.32756 15.4444L7.32273 15.4419L7.32039 15.4407L7.31616 15.4386L7.31356 15.4373L7.30988 15.4354L7.30707 15.434L7.30389 15.4324L7.30092 15.4309L7.29818 15.4295L7.2951 15.4279L7.29277 15.4267L7.28961 15.4251L7.28764 15.4241L7.28446 15.4225L7.28281 15.4217L7.27963 15.4201L7.27827 15.4194L7.27514 15.4178L7.27403 15.4172L7.27098 15.4157L7.27008 15.4152L7.26714 15.4138L7.26642 15.4134L7.26363 15.412L7.26307 15.4117L7.26044 15.4104L7.26001 15.4101L7.25758 15.4089L7.25726 15.4087L7.25504 15.4076L7.2548 15.4075L7.25282 15.4065L7.25265 15.4064L7.25092 15.4055L7.24934 15.4047L7.24808 15.4041L7.24713 15.4036L7.2465 15.4033L7.24618 15.4031L6.68098 15.1169L6.74132 14.9978L6.74147 14.9974L6.74178 14.9968L6.74225 14.9959L6.74288 14.9947L6.74366 14.9931L6.74459 14.9913L6.74468 14.9911L6.74568 14.9891L6.7458 14.9889L6.74692 14.9867L6.74709 14.9864L6.74832 14.9839L6.74854 14.9835L6.74987 14.9809L6.75015 14.9803L6.75157 14.9775L6.75193 14.9768L6.75342 14.9739L6.75387 14.973L6.75542 14.9699L6.75598 14.9688L6.75757 14.9657L6.75826 14.9643L6.75987 14.9611L6.7607 14.9595L6.76231 14.9563L6.76331 14.9543L6.76491 14.9512L6.76609 14.9488L6.76765 14.9458L6.76904 14.943L6.77054 14.94L6.77215 14.9369L6.77358 14.9341L6.77544 14.9304L6.77676 14.9278L6.7789 14.9235L6.78008 14.9212L6.78253 14.9164L6.78355 14.9144L6.78633 14.9089L6.78717 14.9072L6.7903 14.901L6.79092 14.8998L6.79445 14.8928L6.79482 14.8921L6.79877 14.8843L6.79886 14.8841L6.80304 14.8759L6.80326 14.8754L6.80736 14.8673L6.80793 14.8662L6.81183 14.8585L6.81278 14.8566L6.81643 14.8494L6.8178 14.8467L6.82117 14.8401L6.823 14.8365L6.82604 14.8305L6.82838 14.8258L6.83106 14.8206L6.83393 14.8149L6.83621 14.8104L6.83967 14.8036L6.8415 14.7999L6.84558 14.7919L6.84692 14.7892L6.85167 14.7798L6.85248 14.7783L6.85794 14.7675L6.85817 14.767L6.86399 14.7555L6.8644 14.7547L6.86995 14.7437L6.87104 14.7416L6.87604 14.7317L6.87785 14.7281L6.88227 14.7194L6.88486 14.7143L6.88862 14.7069L6.89204 14.7001L6.89511 14.6941L6.89941 14.6856L6.90172 14.681L6.90697 14.6707L6.90847 14.6677L6.91471 14.6554L6.91534 14.6541L6.92234 14.6403L6.92264 14.6397L6.92947 14.6262L6.93075 14.6237L6.93672 14.6119L6.93905 14.6073L6.9441 14.5973L6.94754 14.5905L6.95161 14.5825L6.95622 14.5734L6.95924 14.5674L6.96508 14.5559L6.967 14.5521L6.97414 14.538L6.97488 14.5366L6.98288 14.5208L6.98339 14.5198L6.99101 14.5047L6.99283 14.5011L6.99925 14.4884L7.00246 14.4821L7.00762 14.4719L7.01228 14.4627L7.01611 14.4551L7.02229 14.4429L7.02472 14.4381L7.0325 14.4228L7.03345 14.4209L7.0423 14.4034L7.04291 14.4022L7.05127 14.3857L7.05351 14.3813L7.06035 14.3678L7.0643 14.36L7.06955 14.3496L7.07529 14.3383L7.07887 14.3312L7.08647 14.3162L7.0883 14.3126L7.09785 14.2938L7.10751 14.2747L7.10944 14.2709L7.11729 14.2554L7.12122 14.2476L7.12718 14.2358L7.1332 14.2239L7.13718 14.2161L7.14538 14.1999L7.14729 14.1961L7.15752 14.1759L7.15776 14.1755L7.16785 14.1555L7.17034 14.1506L7.1783 14.1349L7.18312 14.1254L7.18886 14.114L7.1961 14.0997L7.19952 14.093L7.20929 14.0737L7.21029 14.0717L7.22117 14.0502L7.22268 14.0473L7.23216 14.0285L7.23628 14.0204L7.24326 14.0066L7.25008 13.9932L7.25446 13.9845L7.26408 13.9655L7.26576 13.9622L7.27717 13.9397L7.27829 13.9374L7.28869 13.9169L7.29271 13.909L7.3003 13.894L7.30734 13.8801L7.31202 13.8708L7.32217 13.8508L7.32385 13.8475L7.33577 13.824L7.33721 13.8211L7.34779 13.8002L7.35246 13.791L7.35992 13.7763L7.36792 13.7605L7.37214 13.7521L7.38359 13.7295L7.38447 13.7278L7.39689 13.7033L7.39947 13.6982L7.40941 13.6785L7.41556 13.6664L7.42203 13.6536L7.43186 13.6342L7.43474 13.6285L7.44755 13.6032L7.44838 13.6016L7.46045 13.5778L7.46511 13.5686L7.47345 13.5521L7.48206 13.5351L7.48655 13.5262L7.49922 13.5012L7.49973 13.5002L7.51301 13.474L7.51659 13.4669L7.52639 13.4476L7.53418 13.4322L7.53985 13.421L7.55199 13.397L7.55341 13.3942L7.56705 13.3673L7.57001 13.3614L7.58079 13.3402L7.58825 13.3254L7.59461 13.3129L7.60671 13.289L7.60852 13.2854L7.62252 13.2577L7.62539 13.2521L7.63661 13.2299L7.64429 13.2148L7.65079 13.2019L7.66341 13.177L7.66505 13.1738L7.67939 13.1454L7.68275 13.1388L7.69382 13.1169L7.70231 13.1002L7.70834 13.0883L7.72209 13.0611L7.72294 13.0595L7.73762 13.0305L7.7421 13.0216L7.75238 13.0013L7.76232 12.9817L7.76723 12.972L7.78215 12.9425L7.78278 12.9413L7.79716 12.9129L7.80345 12.9005L7.81225 12.8831L7.82436 12.8592L7.82742 12.8532L7.84266 12.8231L7.84548 12.8175L7.85798 12.7928L7.86684 12.7753L7.87338 12.7624L7.88842 12.7327L7.88886 12.7318L7.90442 12.7011L7.91023 12.6896L7.92004 12.6703L7.93226 12.6461L7.93575 12.6392L7.95153 12.6081L7.95453 12.6022L7.96738 12.5768L7.97702 12.5577L7.9833 12.5453L7.9993 12.5138L7.99975 12.5129L8.01537 12.482L8.02271 12.4675L8.03151 12.4502L8.04589 12.4218L8.04772 12.4181L8.064 12.386L8.06931 12.3755L8.08035 12.3537L8.09296 12.3288L8.09677 12.3213L8.11326 12.2887L8.11685 12.2817L8.12982 12.256L8.14097 12.234L8.14644 12.2232L8.16313 12.1903L8.16532 12.1859L8.17988 12.1572L8.18991 12.1374L8.1967 12.124L8.21358 12.0906L8.21473 12.0884L8.23053 12.0572L8.23979 12.0389L8.24754 12.0236L8.26461 11.9899L8.26509 11.9889L8.28175 11.956L8.29062 11.9385L8.29894 11.9221L8.3162 11.888L8.31639 11.8876L8.33352 11.8538L8.3424 11.8363L8.35089 11.8195L8.36833 11.7851L8.36865 11.7844L8.38582 11.7505L8.39514 11.7321L8.40337 11.7159L8.42098 11.6811L8.42188 11.6793L8.43865 11.6462L8.44885 11.6261L8.45637 11.6112L8.47414 11.5761L8.47606 11.5724L8.49197 11.5409L8.50352 11.5181L8.50986 11.5056L8.52779 11.4702L8.53122 11.4634L8.54578 11.4347L8.55916 11.4083L8.56383 11.3991L8.58192 11.3633L8.58735 11.3526L8.60006 11.3275L8.61578 11.2965L8.61826 11.2916L8.6365 11.2556L8.64446 11.2398L8.6548 11.2194L8.67314 11.1832L8.67338 11.1827L8.69153 11.1469L8.70255 11.1251L8.70996 11.1105L8.72845 11.074L8.73197 11.067L8.74697 11.0374L8.76163 11.0085L8.76555 11.0007L8.78417 10.964L8.79155 10.9494L8.80283 10.9271L8.82154 10.8902L8.82171 10.8898L8.84028 10.8532L8.85213 10.8298L8.85908 10.8161L8.87791 10.7789L8.88279 10.7692L8.89678 10.7416L8.9137 10.7082L8.9157 10.7043L8.93465 10.6668L8.94487 10.6467L8.95364 10.6293L8.97267 10.5918L8.97629 10.5846L8.99174 10.5541L9.00796 10.5221L9.01085 10.5164L9.02999 10.4786L9.03989 10.459L9.04917 10.4407L9.06838 10.4028L9.07207 10.3955L9.08763 10.3648L9.1045 10.3314L9.10692 10.3267L9.12623 10.2885L9.13719 10.2669L9.14558 10.2503L9.16496 10.2121L9.17014 10.2018L9.18438 10.1737L9.20334 10.1363L9.20382 10.1353L9.2233 10.0969L9.2368 10.0702L9.2428 10.0584L9.26234 10.0198L9.27052 10.0036L9.2819 9.98116L9.30149 9.94248L9.30449 9.93655L9.32111 9.90374L9.33873 9.86895L9.34075 9.86495L9.36042 9.82611L9.37322 9.80084L9.38012 9.78722L9.39984 9.74828L9.40798 9.73221L9.41959 9.70929L9.43935 9.67025L9.44299 9.66307L9.45915 9.63117L9.47827 9.59341L9.47896 9.59205L9.4988 9.55288L9.51381 9.52323L9.51865 9.51367L9.53853 9.47442L9.54961 9.45254L9.55843 9.43513L9.57835 9.3958L9.58568 9.38132L9.59828 9.35643L9.61824 9.31703L9.62201 9.30958L9.63821 9.2776L9.6582 9.23813L9.65861 9.23732L9.6782 9.19863L9.69547 9.16454L9.69822 9.1591L9.71826 9.11954L9.73259 9.09123L9.73831 9.07995L9.75837 9.04033L9.76998 9.0174L9.77845 9.00069L9.79853 8.96102L9.80764 8.94303L9.81864 8.92133L9.83875 8.88162L9.84557 8.86814L9.85887 8.84188L9.879 8.80213L9.88377 8.79272L9.89914 8.76236L9.9193 8.72257L9.92223 8.71677L9.93945 8.68276L9.95962 8.64294L9.96097 8.64028L9.97979 8.60311L9.99997 8.56326L10.0202 8.5234L10.0392 8.48571L10.0404 8.48353L10.0605 8.44366L10.0788 8.40762L10.0807 8.40377L10.1009 8.36388L10.1186 8.329L10.1212 8.32398L10.1414 8.28408L10.1587 8.24983L10.1616 8.24418L10.1818 8.20428L10.1991 8.17013L10.202 8.16437L10.2222 8.12447L10.2397 8.08988L10.2424 8.08457L10.2626 8.04467L10.2806 8.0091L10.2828 8.00477L10.303 7.96488L10.3218 7.92777L10.3232 7.925L10.3434 7.88513L10.3633 7.84589L10.3636 7.84527L10.3838 7.80541L10.404 7.76557L10.405 7.76347L10.4241 7.72575L10.4443 7.68593L10.447 7.6805L10.4644 7.64613L10.4846 7.60635L10.4893 7.59698L10.5047 7.56659L10.5249 7.52685L10.5319 7.51292L10.545 7.48712L10.5651 7.44742L10.5748 7.4283L10.5852 7.40774L10.6053 7.36809L10.6179 7.34313L10.6253 7.32846L10.6454 7.28886L10.6613 7.25741L10.6654 7.24928L10.6854 7.20974L10.705 7.17114L10.7055 7.17022L10.7255 7.13074L10.7454 7.09128L10.749 7.0843L10.7654 7.05187L10.7853 7.01248L10.7932 6.99692L10.8053 6.97314L10.8252 6.93383L10.8378 6.90897L10.8451 6.89456L10.8649 6.85533L10.8826 6.82046L10.8848 6.81614L10.9046 6.77699L10.9244 6.73789L10.9277 6.7314L10.9442 6.69883L10.9639 6.65982L10.9731 6.64177L10.9837 6.62085L11.0034 6.58194L11.0231 6.54307L11.0427 6.50426L11.0624 6.46549L11.082 6.42678L11.1015 6.38813L11.1211 6.34953L11.1406 6.31098L11.1601 6.2725L11.1796 6.23408L11.199 6.19571L10.7529 5.96981L10.3069 5.74391L9.86081 5.51801L9.84138 5.55637L9.82192 5.5948L9.80243 5.63328L9.78291 5.67183L9.76336 5.71042L9.74379 5.74908L9.72418 5.78779L9.70455 5.82655L9.68489 5.86537L9.66521 5.90424L9.6455 5.94315L9.63491 5.96407L9.62577 5.98212L9.60601 6.02113L9.58952 6.0537L9.58623 6.06019L9.56643 6.09929L9.5466 6.13844L9.54441 6.14276L9.52676 6.17763L9.50689 6.21686L9.49959 6.23127L9.487 6.25613L9.46709 6.29543L9.45505 6.31921L9.44717 6.33478L9.42722 6.37416L9.41079 6.4066L9.40726 6.41358L9.38728 6.45303L9.36728 6.49252L9.36682 6.49343L9.34727 6.53203L9.32724 6.57158L9.32313 6.57971L9.3072 6.61116L9.28714 6.65076L9.27971 6.66543L9.26707 6.69039L9.24699 6.73004L9.23658 6.7506L9.2269 6.76972L9.20679 6.80942L9.19373 6.83522L9.18667 6.84915L9.16655 6.88889L9.15115 6.91928L9.14641 6.92865L9.12626 6.96843L9.10886 7.0028L9.10611 7.00823L9.08594 7.04804L9.06684 7.08577L9.06577 7.08787L9.0456 7.12771L9.02541 7.16757L9.0251 7.16819L9.00523 7.20743L8.98503 7.2473L8.98363 7.25006L8.96484 7.28718L8.94463 7.32707L8.94245 7.33139L8.92443 7.36697L8.90423 7.40686L8.90153 7.41218L8.88402 7.44677L8.86381 7.48667L8.86089 7.49243L8.8436 7.52657L8.82339 7.56648L8.82053 7.57213L8.80318 7.60638L8.78297 7.64628L8.78044 7.6513L8.76277 7.68618L8.74257 7.72607L8.74062 7.72992L8.72237 7.76595L8.70217 7.80583L8.70107 7.80801L8.68198 7.8457L8.66179 7.88556L8.64162 7.92541L8.62279 7.96258L8.62144 7.96524L8.60128 8.00506L8.58405 8.03907L8.58112 8.04487L8.56097 8.08466L8.54559 8.11502L8.54082 8.12443L8.52069 8.16418L8.50739 8.19044L8.50057 8.20392L8.48046 8.24363L8.46947 8.26533L8.46036 8.28332L8.44027 8.32299L8.43181 8.33969L8.42019 8.36263L8.40013 8.40225L8.39441 8.41353L8.38008 8.44183L8.36004 8.4814L8.35729 8.48684L8.34002 8.52093L8.32043 8.55962L8.32002 8.56043L8.30003 8.5999L8.28383 8.63188L8.28006 8.63933L8.26011 8.67873L8.2475 8.70362L8.24017 8.7181L8.22025 8.75742L8.21144 8.77483L8.20035 8.79672L8.18048 8.83597L8.17563 8.84553L8.16062 8.87518L8.14078 8.91434L8.14009 8.91571L8.12097 8.95347L8.10482 8.98536L8.10118 8.99255L8.08141 9.03159L8.0698 9.05451L8.06166 9.07057L8.04194 9.10952L8.03504 9.12313L8.02224 9.14841L8.00257 9.18725L8.00055 9.19125L7.98293 9.22604L7.96631 9.25885L7.96331 9.26478L7.94372 9.30346L7.93234 9.32594L7.92416 9.34209L7.90462 9.38066L7.89862 9.39251L7.88512 9.41917L7.86564 9.45763L7.86516 9.45858L7.8462 9.49602L7.83196 9.52414L7.82679 9.53436L7.8074 9.57263L7.79901 9.5892L7.78805 9.61084L7.76874 9.64898L7.76632 9.65375L7.74945 9.68705L7.73389 9.71779L7.73021 9.72506L7.71099 9.763L7.70171 9.78133L7.69181 9.80087L7.67267 9.83867L7.66978 9.84437L7.65356 9.8764L7.63811 9.90691L7.63449 9.91405L7.61546 9.95163L7.60669 9.96895L7.59647 9.98913L7.57752 10.0266L7.57553 10.0305L7.5586 10.0639L7.54461 10.0915L7.53973 10.1012L7.5209 10.1384L7.51395 10.1521L7.50211 10.1755L7.48353 10.2121L7.48336 10.2125L7.46465 10.2494L7.45337 10.2717L7.44599 10.2863L7.42737 10.323L7.42346 10.3308L7.4088 10.3597L7.39379 10.3893L7.39027 10.3963L7.37178 10.4328L7.36437 10.4474L7.35335 10.4692L7.3352 10.505L7.33496 10.5055L7.31662 10.5417L7.30628 10.5621L7.29832 10.5778L7.28008 10.6139L7.2776 10.6188L7.26189 10.6498L7.24917 10.6749L7.24374 10.6856L7.22565 10.7214L7.22098 10.7306L7.20761 10.757L7.19304 10.7857L7.18962 10.7925L7.17168 10.8279L7.16534 10.8404L7.15379 10.8632L7.13788 10.8947L7.13596 10.8984L7.11819 10.9335L7.11067 10.9484L7.10047 10.9685L7.0837 11.0016L7.0828 11.0034L7.0652 11.0382L7.05697 11.0544L7.04764 11.0728L7.03048 11.1067L7.03015 11.1074L7.01272 11.1418L7.00423 11.1586L6.99534 11.1761L6.97822 11.2099L6.97802 11.2103L6.96076 11.2444L6.95244 11.2608L6.94357 11.2783L6.92691 11.3112L6.92643 11.3122L6.90936 11.3459L6.90161 11.3612L6.89235 11.3795L6.87655 11.4107L6.8754 11.4129L6.85852 11.4463L6.85173 11.4597L6.8417 11.4795L6.82714 11.5082L6.82495 11.5126L6.80826 11.5455L6.80279 11.5563L6.79164 11.5783L6.77867 11.6039L6.77508 11.611L6.7586 11.6436L6.75479 11.6511L6.74218 11.676L6.73113 11.6978L6.72583 11.7083L6.70954 11.7404L6.70771 11.7441L6.69333 11.7725L6.68453 11.7898L6.67719 11.8043L6.66157 11.8352L6.66112 11.8361L6.64513 11.8676L6.63885 11.88L6.6292 11.8991L6.61635 11.9245L6.61335 11.9304L6.59757 11.9615L6.59409 11.9684L6.58187 11.9926L6.57205 12.0119L6.56624 12.0234L6.55068 12.0541L6.55024 12.055L6.53521 12.0847L6.52866 12.0976L6.51981 12.1151L6.5073 12.1398L6.50448 12.1454L6.48924 12.1755L6.48618 12.1815L6.47407 12.2054L6.46527 12.2228L6.45898 12.2352L6.4446 12.2636L6.44398 12.2648L6.42905 12.2943L6.42415 12.304L6.4142 12.3236L6.40392 12.3439L6.39944 12.3528L6.38476 12.3818L6.38391 12.3834L6.37016 12.4106L6.36413 12.4225L6.35564 12.4392L6.34457 12.4611L6.34121 12.4677L6.32687 12.4961L6.32523 12.4993L6.31261 12.5242L6.30611 12.5371L6.29843 12.5522L6.28721 12.5744L6.28434 12.58L6.27034 12.6077L6.26853 12.6113L6.25643 12.6352L6.25007 12.6477L6.24261 12.6625L6.23183 12.6837L6.22887 12.6896L6.21523 12.7165L6.21381 12.7193L6.20167 12.7433L6.196 12.7545L6.18821 12.7699L6.17841 12.7892L6.17484 12.7963L6.16156 12.8225L6.16104 12.8235L6.14837 12.8485L6.14388 12.8574L6.13528 12.8744L6.12693 12.8909L6.12228 12.9001L6.1102 12.9239L6.10937 12.9255L6.09656 12.9508L6.09369 12.9565L6.08385 12.9759L6.07738 12.9887L6.07123 13.0008L6.06129 13.0205L6.05871 13.0256L6.04629 13.0501L6.04541 13.0518L6.03397 13.0744L6.02974 13.0828L6.02174 13.0986L6.01428 13.1133L6.00962 13.1225L5.99903 13.1434L5.99759 13.1463L5.98567 13.1698L5.98399 13.1731L5.97385 13.1931L5.96916 13.2024L5.96213 13.2163L5.95453 13.2313L5.95051 13.2392L5.94011 13.2597L5.93899 13.262L5.92758 13.2845L5.9259 13.2878L5.91628 13.3068L5.9119 13.3155L5.90508 13.3289L5.8981 13.3427L5.89398 13.3508L5.8845 13.3696L5.883 13.3725L5.87212 13.394L5.87111 13.396L5.86134 13.4153L5.85793 13.422L5.85068 13.4363L5.84494 13.4477L5.84012 13.4572L5.83216 13.4729L5.82967 13.4778L5.81958 13.4978L5.81934 13.4982L5.80911 13.5184L5.8072 13.5222L5.799 13.5384L5.79502 13.5462L5.789 13.5581L5.78304 13.5699L5.77911 13.5777L5.77126 13.5932L5.76933 13.597L5.75968 13.616L5.75012 13.6349L5.7483 13.6385L5.74069 13.6535L5.73711 13.6606L5.73137 13.6719L5.72612 13.6823L5.72217 13.6901L5.71533 13.7036L5.71309 13.708L5.70473 13.7245L5.70412 13.7257L5.69527 13.7432L5.69433 13.7451L5.68655 13.7604L5.68412 13.7652L5.67794 13.7774L5.6741 13.785L5.66945 13.7942L5.66428 13.8044L5.66108 13.8107L5.65465 13.8234L5.65283 13.827L5.64521 13.8421L5.6447 13.8431L5.6367 13.8589L5.63596 13.8603L5.62882 13.8744L5.62691 13.8782L5.62106 13.8897L5.61804 13.8957L5.61343 13.9048L5.60936 13.9128L5.60593 13.9196L5.60087 13.9296L5.59854 13.9342L5.59257 13.946L5.59129 13.9485L5.58446 13.962L5.58416 13.9626L5.57716 13.9764L5.57653 13.9777L5.57029 13.99L5.56879 13.993L5.56354 14.0033L5.56123 14.0079L5.55693 14.0164L5.55386 14.0224L5.55044 14.0292L5.54668 14.0366L5.54409 14.0417L5.53968 14.0504L5.53787 14.054L5.53286 14.0639L5.53178 14.066L5.52622 14.077L5.52582 14.0778L5.51999 14.0893L5.51977 14.0898L5.5143 14.1006L5.51349 14.1021L5.50874 14.1115L5.5074 14.1142L5.50332 14.1222L5.50149 14.1259L5.49803 14.1327L5.49575 14.1372L5.49288 14.1429L5.4902 14.1481L5.48786 14.1528L5.48482 14.1588L5.48299 14.1624L5.47962 14.169L5.47825 14.1717L5.4746 14.1789L5.47365 14.1808L5.46976 14.1885L5.46919 14.1896L5.46509 14.1977L5.46486 14.1982L5.46068 14.2064L5.46059 14.2066L5.45664 14.2144L5.45627 14.2151L5.45274 14.2221L5.45212 14.2233L5.44899 14.2295L5.44815 14.2312L5.44538 14.2367L5.44435 14.2387L5.44191 14.2435L5.44072 14.2458L5.43858 14.2501L5.43726 14.2527L5.4354 14.2563L5.43398 14.2592L5.43236 14.2623L5.43086 14.2653L5.42947 14.268L5.42791 14.2711L5.42673 14.2735L5.42513 14.2766L5.42414 14.2786L5.42252 14.2818L5.42169 14.2834L5.42008 14.2866L5.41939 14.288L5.4178 14.2911L5.41724 14.2922L5.41569 14.2953L5.41524 14.2962L5.41375 14.2991L5.41339 14.2998L5.41197 14.3026L5.41169 14.3032L5.41036 14.3058L5.41014 14.3062L5.40891 14.3087L5.40875 14.309L5.40762 14.3112L5.4075 14.3114L5.4065 14.3134L5.40642 14.3136L5.40554 14.3153L5.40474 14.3169L5.4041 14.3182L5.40362 14.3191L5.4033 14.3197Z" fill="#313840"/>
</g>
<defs>
<clipPath id="clip0_2_44">
<rect width="24" height="24" fill="white"/>
</clipPath>
</defs>
</svg>
