<svg width="24" height="24" viewBox="0 0 24 24" fill="none" xmlns="http://www.w3.org/2000/svg">
<g clip-path="url(#clip0_2_51)">
<path fill-rule="evenodd" clip-rule="evenodd" d="M14.8003 22.7991C11.487 27.2176 5.21907 28.1136 0.800499 24.8003C-3.61808 21.487 -4.51407 15.2191 -1.20075 10.8005C2.11256 6.38193 8.38049 5.48594 12.7991 8.79925C17.2176 12.1126 18.1136 18.3805 14.8003 22.7991ZM16.4004 23.9989C12.4245 29.3012 4.90293 30.3764 -0.399358 26.4004C-5.70165 22.4245 -6.77684 14.9029 -2.80086 9.60064C1.17512 4.29835 8.69664 3.22317 13.9989 7.19914C19.3012 11.1751 20.3764 18.6966 16.4004 23.9989ZM3.1139 19.0214L3.05255 19.1032L4.68902 20.3303L4.75038 20.2485C5.18215 19.6916 5.59404 19.2654 5.98606 18.97C6.37808 18.6745 6.79681 18.4807 7.24226 18.3886C7.69111 18.292 8.20929 18.2686 8.7968 18.3186C9.38089 18.3731 9.93316 18.3469 10.4536 18.24C10.9786 18.1366 11.4678 17.9388 11.9212 17.6467C12.3791 17.358 12.7955 16.9637 13.1705 16.4636C13.7022 15.7545 14.0124 14.9999 14.101 14.1999C14.1941 13.4033 14.0622 12.6226 13.7053 11.8579C13.353 11.0966 12.7768 10.4159 11.9767 9.81601C11.2403 9.2638 10.4607 8.90649 9.63798 8.74406C8.81979 8.58504 8.02036 8.6425 7.2397 8.91644C6.46359 9.19378 5.76762 9.7052 5.15177 10.4507L6.87007 11.7392C7.30866 11.2301 7.76829 10.8965 8.24896 10.7385C8.72963 10.5805 9.20065 10.5538 9.66202 10.6583C10.1234 10.7628 10.5405 10.9548 10.9132 11.2343C11.3405 11.5547 11.6627 11.9348 11.8798 12.3745C12.0969 12.8143 12.1873 13.2762 12.1509 13.7603C12.1146 14.2444 11.9294 14.7092 11.5954 15.1547C11.3261 15.5138 11.017 15.7934 10.6682 15.9934C10.3239 16.1968 9.95969 16.3321 9.5756 16.3992C9.19492 16.4617 8.80913 16.4742 8.41822 16.4368C7.77162 16.3709 7.16992 16.3778 6.61311 16.4574C6.05629 16.537 5.49893 16.7689 4.94101 17.153C4.38309 17.5371 3.77405 18.1599 3.1139 19.0214ZM0.303444 22.7835C0.363708 23.2051 0.562035 23.542 0.89842 23.7943C1.12571 23.9647 1.37117 24.0636 1.63481 24.0908C1.9064 24.1169 2.16663 24.0777 2.41548 23.9731C2.66888 23.872 2.8791 23.71 3.04612 23.4873C3.29836 23.1509 3.39435 22.7719 3.33409 22.3503C3.27382 21.9287 3.0755 21.5918 2.73911 21.3396C2.40272 21.0873 2.02374 20.9913 1.60215 21.0516C1.18057 21.1119 0.843653 21.3102 0.591411 21.6466C0.339167 21.983 0.24318 22.3619 0.303444 22.7835Z" fill="#313840"/>
</g>
<defs>
<clipPath id="clip0_2_51">
<rect width="24" height="24" fill="white"/>
</clipPath>
</defs>
</svg>
